<?xml version="1.0" standalone="no"?>
<!DOCTYPE svg PUBLIC "-//W3C//DTD SVG 20010904//EN"
 "http://www.w3.org/TR/2001/REC-SVG-20010904/DTD/svg10.dtd">
<svg version="1.0" xmlns="http://www.w3.org/2000/svg"
 width="1055.000000pt" height="886.000000pt" viewBox="0 0 1055.000000 886.000000"
 preserveAspectRatio="xMidYMid meet">

<g transform="translate(0.000000,886.000000) scale(0.100000,-0.100000)"
fill="#000000" stroke="none">
<path d="M2638 8853 c1454 -2 3830 -2 5280 0 1450 1 261 2 -2643 2 -2904 0
-4091 -1 -2637 -2z"/>
<path d="M6140 6823 c-381 -15 -719 -38 -900 -62 -47 -7 -137 -18 -200 -27
-63 -8 -135 -20 -160 -26 -25 -6 -61 -14 -80 -18 -43 -8 -90 -32 -111 -56 -10
-11 -25 -48 -35 -83 -17 -61 -17 -64 2 -98 33 -63 120 -101 279 -123 44 -7
123 -18 175 -25 52 -7 142 -19 200 -25 133 -16 148 -21 80 -31 -49 -8 -354 0
-731 17 -166 8 -216 -4 -281 -70 -80 -83 -82 -183 -3 -261 40 -41 107 -67 199
-79 48 -6 52 -10 37 -38 -7 -13 -19 -36 -28 -53 -26 -48 -22 -136 9 -183 31
-46 100 -85 178 -100 153 -31 419 -50 723 -52 20 0 37 -4 37 -10 0 -5 -9 -10
-21 -10 -11 0 -33 -7 -47 -15 -15 -8 -49 -19 -77 -25 -27 -6 -77 -18 -110 -26
-33 -9 -76 -19 -95 -23 -184 -41 -178 -242 9 -282 68 -14 644 5 701 24 66 21
235 14 340 -15 124 -34 277 -58 366 -58 100 0 393 57 419 81 5 5 16 9 25 9 19
0 100 37 280 128 140 72 146 74 200 69 30 -3 107 -10 171 -16 64 -6 136 -15
160 -20 66 -14 197 -17 209 -5 7 7 10 27 8 45 -3 39 9 36 -248 64 -363 40
-372 41 -426 15 -27 -13 -56 -29 -64 -36 -18 -15 -131 -74 -142 -74 -4 0 -31
-11 -60 -24 -145 -68 -223 -93 -368 -119 -81 -14 -265 -13 -345 3 -33 6 -91
18 -130 26 -38 7 -95 21 -125 30 -69 21 -91 20 -385 -15 -44 -5 -187 -12 -317
-16 -208 -5 -242 -4 -272 10 -89 42 -39 70 229 130 44 9 101 24 127 31 26 8
56 14 68 14 12 0 30 5 41 11 23 12 122 31 158 31 16 0 35 -12 52 -34 22 -26
30 -30 40 -21 10 10 9 20 -8 50 -25 45 -55 130 -79 228 -14 55 -18 110 -17
260 0 112 6 209 13 235 6 25 15 63 20 85 5 22 16 63 24 90 8 28 18 60 22 72 9
31 -23 44 -42 18 -17 -22 -82 -22 -254 0 -63 9 -164 22 -225 30 -60 8 -148 19
-195 25 -345 45 -410 63 -410 116 0 40 17 63 58 73 73 20 249 49 392 65 80 9
163 19 185 22 106 15 429 35 695 44 335 11 732 0 850 -24 235 -48 461 -123
676 -227 78 -37 84 -39 221 -45 77 -4 152 -4 166 0 31 7 44 44 27 75 -10 20
-19 21 -133 21 -130 0 -173 8 -252 47 -27 13 -79 35 -114 49 -36 13 -69 28
-75 32 -6 4 -58 23 -116 41 -58 19 -112 37 -121 41 -8 4 -55 17 -105 29 -49
12 -107 26 -128 32 -105 29 -520 44 -836 32z m-1100 -674 c682 -20 710 -21
720 -34 6 -8 5 -35 -5 -81 -8 -38 -15 -83 -15 -100 0 -17 -6 -36 -12 -41 -25
-17 -839 25 -1113 58 -144 18 -195 46 -195 109 0 46 30 87 73 99 18 5 70 7
117 5 47 -3 240 -9 430 -15z m695 -390 c8 -9 35 -155 35 -191 l0 -38 -257 0
c-291 0 -555 17 -723 48 -63 11 -108 40 -120 78 -12 35 -6 59 24 93 l21 23
508 -4 c279 -3 509 -7 512 -9z"/>
<path d="M3805 6808 c-6 -15 9 -40 95 -154 25 -33 54 -78 65 -99 11 -22 23
-42 26 -45 12 -10 37 -76 59 -150 11 -41 26 -93 33 -115 16 -53 16 -412 1
-446 -6 -13 -19 -51 -29 -84 -28 -99 -129 -293 -200 -384 -48 -60 -63 -87 -55
-95 12 -12 17 -5 114 120 52 66 123 193 154 274 24 61 43 152 59 270 22 166 0
382 -48 481 -4 9 -11 33 -14 53 -4 20 -11 39 -16 41 -4 3 -22 36 -39 72 -38
80 -75 135 -124 183 -19 19 -36 40 -36 46 0 6 -9 19 -20 29 -17 15 -20 16 -25
3z"/>
<path d="M3680 6675 c0 -9 24 -47 54 -86 29 -39 65 -94 80 -122 14 -29 30 -59
35 -67 5 -8 22 -55 37 -105 25 -82 28 -104 28 -250 1 -104 -4 -176 -12 -205
-38 -130 -49 -160 -79 -212 -18 -31 -33 -59 -33 -63 0 -4 -27 -43 -60 -86 -62
-81 -70 -99 -45 -99 14 0 145 164 145 181 0 5 14 31 30 57 17 27 30 59 30 70
0 11 4 23 9 26 5 3 12 23 16 43 4 21 11 43 16 49 5 6 14 67 19 135 12 132 0
261 -34 379 -17 62 -98 226 -130 264 -12 14 -36 43 -55 65 -36 43 -51 51 -51
26z"/>
<path d="M6555 6638 c-38 -5 -109 -15 -156 -23 -47 -8 -102 -15 -121 -15 -20
0 -55 -7 -78 -15 -23 -8 -51 -15 -61 -15 -39 0 -148 -60 -168 -93 -35 -57 -47
-121 -32 -164 36 -99 108 -144 268 -168 57 -8 118 -15 137 -15 46 0 63 -22 46
-58 -44 -94 -63 -316 -35 -424 9 -35 27 -86 40 -115 14 -29 29 -63 35 -77 5
-14 18 -30 30 -36 18 -10 20 -8 20 19 0 16 -9 45 -19 63 -11 18 -32 69 -46
113 -25 73 -27 89 -23 205 3 95 10 141 27 191 42 125 88 130 175 20 79 -99
229 -219 311 -249 121 -44 316 -56 423 -26 183 51 294 160 210 205 -17 9 -30
4 -78 -30 -136 -95 -304 -118 -490 -65 -58 16 -105 43 -155 89 -16 14 -48 43
-70 63 -22 20 -48 48 -57 62 -9 14 -37 47 -61 73 l-43 49 -125 14 c-68 8 -163
18 -211 23 -57 6 -105 19 -143 36 -61 29 -80 58 -70 107 7 29 42 56 54 41 4
-4 20 -25 35 -46 26 -36 31 -38 74 -35 39 3 47 6 47 23 0 16 -8 21 -35 23 -19
2 -41 8 -47 14 -17 13 -17 53 0 66 13 11 185 42 375 68 186 25 329 14 550 -42
95 -24 177 -46 182 -49 4 -3 48 -17 95 -30 81 -24 89 -24 111 -10 24 15 30 40
16 60 -18 26 -221 90 -472 149 -132 32 -326 42 -465 24z"/>
<path d="M2978 6595 c-3 -3 -34 -10 -68 -16 -35 -5 -72 -16 -84 -24 -11 -8
-29 -15 -39 -15 -26 0 -59 -22 -167 -112 -34 -28 -100 -127 -100 -149 0 -32
18 -21 55 36 88 132 241 226 390 239 47 4 110 2 149 -4 62 -10 176 -53 208
-79 121 -98 170 -166 214 -296 21 -62 24 -213 6 -275 -22 -75 -80 -185 -122
-233 -22 -25 -40 -47 -40 -50 0 -3 -27 -42 -60 -85 -33 -44 -60 -87 -60 -95 0
-9 -4 -19 -10 -22 -12 -7 -53 -93 -73 -155 -42 -125 -68 -160 -147 -202 -37
-19 -59 -23 -121 -22 -107 2 -154 31 -216 133 -15 24 -29 59 -32 78 -9 50 -26
40 -24 -13 3 -51 35 -116 78 -160 41 -42 149 -84 217 -84 43 0 148 47 186 83
26 24 112 192 112 218 0 37 80 174 166 282 67 85 134 186 134 202 0 8 4 15 9
15 20 0 51 131 50 213 -1 175 -49 303 -153 410 -75 77 -95 92 -171 127 -96 44
-265 77 -287 55z"/>
<path d="M3530 6556 c0 -7 7 -20 17 -27 9 -8 33 -37 53 -64 123 -166 165 -416
104 -612 -34 -110 -54 -150 -121 -240 -47 -63 -62 -93 -49 -93 48 0 163 179
208 324 18 59 22 95 22 206 0 152 -14 211 -80 341 -57 114 -154 218 -154 165z"/>
<path d="M2960 6248 c-49 -11 -124 -58 -155 -97 -11 -14 -31 -46 -44 -70 -21
-40 -23 -53 -17 -118 3 -41 11 -83 17 -94 14 -28 39 -124 39 -154 0 -27 -13
-89 -37 -172 -17 -61 -12 -82 31 -140 52 -71 141 -82 212 -28 39 30 49 47 40
70 -4 12 -15 6 -47 -25 -37 -35 -47 -40 -89 -40 -43 0 -51 4 -80 37 -32 36
-32 38 -25 105 3 38 13 88 21 110 20 58 18 95 -12 184 -15 45 -29 112 -31 155
-5 68 -3 79 20 115 35 56 75 89 132 114 41 18 61 21 114 16 35 -4 73 -13 85
-21 11 -8 28 -15 38 -15 10 0 18 -4 18 -10 0 -5 13 -24 29 -42 16 -18 34 -53
41 -78 7 -24 18 -53 26 -64 13 -18 14 -18 20 -1 4 9 2 32 -4 49 -7 18 -12 39
-12 47 0 8 -20 38 -44 68 -68 83 -183 123 -286 99z"/>
<path d="M8055 4189 c-105 -13 -173 -38 -300 -107 -27 -15 -95 -72 -151 -127
-83 -83 -107 -114 -138 -180 -72 -149 -87 -214 -89 -365 -2 -168 16 -247 85
-387 44 -89 63 -115 145 -197 51 -52 113 -104 136 -116 136 -70 178 -90 192
-90 8 0 23 -4 33 -9 9 -5 60 -14 112 -20 142 -15 339 15 435 66 107 58 128 71
180 116 115 100 196 225 256 397 20 56 23 85 23 215 0 172 -12 236 -71 355
-97 196 -270 352 -463 417 -57 19 -211 43 -270 41 -25 0 -76 -4 -115 -9z m315
-341 c241 -111 347 -404 239 -663 -104 -250 -389 -359 -644 -245 -90 40 -191
158 -238 278 -18 47 -22 77 -22 172 0 136 16 192 82 292 50 76 102 122 183
163 79 40 103 45 220 41 96 -3 113 -7 180 -38z"/>
<path d="M1606 4164 c-14 -14 -16 -97 -16 -769 0 -414 3 -760 6 -769 5 -14 57
-16 474 -16 l468 0 6 23 c12 44 7 245 -6 254 -7 4 -148 10 -313 13 l-300 5 -5
625 c-3 344 -9 631 -13 638 -6 9 -47 12 -147 12 -113 0 -142 -3 -154 -16z"/>
<path d="M3357 4174 c-4 -4 -7 -217 -7 -473 0 -515 4 -564 62 -716 92 -239
252 -361 518 -394 151 -19 286 0 410 58 170 79 283 229 334 446 14 60 16 143
16 568 1 273 -2 502 -5 507 -8 13 -275 13 -295 0 -13 -8 -16 -81 -21 -522 -5
-545 -5 -536 -56 -618 -60 -97 -142 -135 -288 -135 -111 0 -176 21 -240 77
-47 41 -62 64 -92 139 -15 39 -17 103 -22 554 l-6 510 -151 3 c-82 1 -153 -1
-157 -4z"/>
<path d="M5657 4173 c-4 -3 -7 -357 -7 -785 0 -734 1 -778 18 -779 75 -3 279
4 285 10 4 4 8 148 8 321 0 189 4 320 10 331 9 18 26 19 282 19 199 0 276 3
285 12 8 8 12 55 12 145 l0 133 -279 0 c-241 0 -282 2 -295 16 -13 12 -16 40
-16 137 0 67 5 129 10 137 8 13 47 15 237 17 125 0 236 2 246 2 15 1 17 15 17
140 0 117 -2 140 -16 145 -21 8 -789 8 -797 -1z"/>
</g>
</svg>
